<?xml version="1.0" encoding="UTF-8"?>
<svg id="Layer_1" data-name="Layer 1" xmlns="http://www.w3.org/2000/svg" viewBox="0 0 357.27 396.65">
  <defs>
    <style>
      .cls-1 {
        fill: #000490;
      }
    </style>
  </defs>
  <path class="cls-1" d="M338.73,237.92l-63.11.05c-10.16,0-18.2-7.51-18.88-17.59l.2-31.22c.92-18.52,12.35-34.62,29.48-42.66-13.35-11.94-14.41-32.35-2.1-45.21,12.15-12.69,32.32-13.09,44.81-.51s12.45,33.15-1.56,45.69c17.9,8.29,29.62,25.69,29.66,45.68l.05,27.74c-.39,9.89-8.2,18.01-18.54,18.02ZM326.21,122.86c0-10.62-8.61-19.22-19.22-19.22s-19.22,8.61-19.22,19.22,8.61,19.22,19.22,19.22,19.22-8.61,19.22-19.22ZM339.03,225.75c3.71,0,6.16-3.1,6.15-6.36l-.06-27.68c-.05-21.09-17.5-37.47-38.11-37.49-20.53-.02-38.15,16.44-38.14,37.45l.03,28.2c0,3.4,2.98,5.92,6.34,5.92l63.8-.03Z"/>
  <path class="cls-1" d="M95.76,237.94l-62.63.04c-10.45,0-18.69-7.68-19.12-18.12l.17-30.22c.81-18.71,12.26-35.09,29.57-43.16-13.41-11.87-14.38-32.26-2.22-45.1s32.81-13.17,45.24-.26c12.36,12.84,11.68,33.38-1.96,45.33,18.25,8.44,29.7,26,29.69,45.67v27.75c-.02,10.09-8.41,18.04-18.75,18.05ZM83.51,122.86c0-10.62-8.61-19.22-19.22-19.22s-19.22,8.61-19.22,19.22,8.61,19.22,19.22,19.22,19.22-8.61,19.22-19.22ZM96.06,225.78c3.82,0,6.43-2.92,6.43-6.4l-.06-27.68c-.05-21.38-17.96-37.87-38.87-37.46-20.67.4-37.5,17.31-37.44,38.44l.08,27.15c.01,3.57,3.03,5.98,6.53,5.97l63.33-.02Z"/>
  <path class="cls-1" d="M219.27,146.07l-67.61.25c-9.31-1.36-15.96-8.72-16.29-18.09l.17-30.36c.84-18.9,12.6-35.19,29.53-43.04-13.73-12.38-14.15-32.76-1.79-45.43,12.23-12.53,32.45-12.57,44.79.11,12.28,12.62,11.89,33.17-1.91,45.31,17.97,8.2,29.72,25.86,29.7,45.77l-.02,27.85c0,8.73-7.14,17.6-16.58,17.63ZM204.82,31.23c0-10.6-8.59-19.19-19.19-19.19s-19.19,8.59-19.19,19.19,8.59,19.19,19.19,19.19,19.19-8.59,19.19-19.19ZM217.79,134.2c3.38,0,5.99-2.85,5.99-5.88v-28.18c-.01-21.05-17.45-37.56-38.06-37.6-20.36-.04-38.14,16.16-38.18,36.93l-.06,28.25c0,3.71,2.7,6.53,6.5,6.52l63.81-.05Z"/>
  <path class="cls-1" d="M150.44,390.66c-16.5-3.96-32.37-6.17-49.12-6.97-18.06-.86-35.68-.99-53.77-.48-1.31,7.21-7.09,13.46-14.51,13.44l-19.13-.05C6.27,396.57,0,388.98,0,381.18l.06-89.54c0-8.68,7.95-15.13,16.11-15.09l16.45.07c8.02.03,14.23,6.76,15.11,15.03l55.99-20.32c10.23-3.71,20.76-4.21,31.58-1.55l.17-12.49c1.13-18.64,12.45-34.72,29.57-42.77-9.83-8.94-13.32-22.25-8.65-34.65,4.23-11.22,14.91-19.42,27.7-20.19,13.18-.8,25.3,7.18,30.26,18.88,5.34,12.58,2.24,26.6-8.16,35.97,18.01,8.35,29.62,25.71,29.66,45.43l.09,40.01,15.6-7.18c20.54-10.47,40.63-21.23,60.48-32.96,9.9-5.84,21.38-4.77,28.97,4.03,8.2,9.49,7.01,22.74-2.21,31.17-19.3,17.64-38.62,34.86-59.5,50.68l-24.85,17.79-27.8,16.64c-7.46,4.46-15.28,7.41-23.54,10.13-17.58,5.78-34.4,4.77-52.66.39ZM204.82,190.95c0-10.6-8.59-19.19-19.19-19.19s-19.19,8.59-19.19,19.19,8.59,19.19,19.19,19.19,19.19-8.59,19.19-19.19ZM209.65,308.26c5.45-.69,9.42-1.88,14.23-3.42l-.15-45.32c-.07-20.54-17-36.65-36.97-37.23-19.95-.58-37.38,14.44-39.11,34.7l-.18,16.43,44.95,13.85c9.56,2.95,15.88,10.84,17.23,21ZM47.7,304.5l.04,66.52,44.28.22c14.95.47,29.32,1.6,43.99,4.1l19.69,4.15c8.41,1.77,16.7,3.1,25.39,2.71,15.77-.7,33.03-8.64,46.81-16.55,13.94-8.01,27.07-16.67,39.97-26.4,22.41-16.91,43.51-35.02,63.84-54.27,3.86-3.65,3.33-9.33.3-13.03-3.29-4.02-8.08-4.87-12.61-2.35l-38.43,21.38-28.43,14.57-18.87,8.42c-8.38,3.74-17.05,5.89-26.26,6.72-5.49,11.44-17.87,16.57-29.78,12.89l-55.12-17.03c-3.44-1.06-5.05-4.24-4.18-7.41s4.02-5.22,7.52-4.15l57.16,17.41c6.3,1.92,12.61-3.03,14.11-8.67,1.66-6.23-1.69-12.9-8.01-14.83l-56.02-17.17c-8.28-2.54-16.72-2.11-24.91.86l-60.45,21.91ZM31.91,384.72c2.23-.01,3.77-1.94,3.77-4.1v-87.45c.01-2.56-1.74-4.46-4.17-4.46l-15.14-.02c-2.56,0-4.36,1.81-4.36,4.48l.02,87.46c0,2.56,1.92,4.17,4.24,4.16l15.65-.07Z"/>
</svg>