<?xml version="1.0" encoding="UTF-8"?>
<svg id="Layer_1" data-name="Layer 1" xmlns="http://www.w3.org/2000/svg" viewBox="0 0 365.85 373.97">
  <defs>
    <style>
      .cls-1 {
        fill: #000490;
      }
    </style>
  </defs>
  <path class="cls-1" d="M247.95,373.97l-144.04-.23c-9.61-.02-12.72-16.16-11.51-23.48l-69.39-.34C10.45,349.86,0,341.76,0,328.17L.2,19.35C.2,9.6,10.18,0,19.84,0l326.7.04c9.25,0,19.25,8.94,19.25,18.13l.07,312.84c0,10.25-9.1,18.37-18.62,18.45l-87.32.68c1.82,8.06-1.24,23.86-11.96,23.84ZM353.3,43.51l.58-22.93c-.45-4.04-3.38-8.52-8.74-8.52l-323.62-.03c-5.74,0-9.29,4.57-9.26,9.22l.15,22.23,340.88.02ZM246.65,280.52c7.65,0,13.3,9.18,13.35,14.84l.4,42.7,83.19.05c5.6-.11,10.39-3.53,10.39-9.98l-.05-272.6-342.15-.04-.14,270.72c0,7.34,4.81,11.79,11.44,11.9l69.02-.11.55-41.55c.09-6.57,6.07-16.02,13.79-16.01l140.21.08ZM104.31,292.16v70.6s143.72.02,143.72.02v-70.6s-143.72-.02-143.72-.02Z"/>
  <path class="cls-1" d="M241.83,162.28l-135.37-.08c-8.57-1.97-13.43-9.07-14.15-17.75v-60.49c1.09-8.02,5.99-14.31,14.05-16.18l137.79.15c9.29.01,16.01,8.13,15.98,16.95l-.2,62.1c-.03,9.02-8.59,15.31-18.1,15.3ZM248.02,79.81l-143.57.04.02,70.49,143.57-.04-.02-70.49Z"/>
  <path class="cls-1" d="M241.55,268.41l-128.58.17c-10.62.01-18.81-5.68-20.56-16.58l-.02-61.49c1.27-8.15,5.97-14.59,14.09-16.28l134.42-.27c10.65-.02,19.28,5.81,19.29,17.25l.04,61.65c-1.53,9.06-8.53,15.53-18.68,15.54ZM248.04,186.11H104.38v70.47h143.66v-70.47Z"/>
  <path class="cls-1" d="M81.84,78.89c-.03-6.36-5.44-10.93-11.51-10.94l-36.07-.11c-6.72-.02-11.76,5.01-11.75,11.75l.03,37.86c.01,6.28,5.31,10.8,11.53,10.72l39.19-.48c5.04-.06,8.75-6.27,8.73-10.57l-.15-38.23ZM69.58,116.47l-34.51.27c-.49-5.81-.61-18.51-.61-18.51,0,0,.5-11.31.98-18.11l32.01.25c2.99.02,2.43,9.22,2.43,9.22,0,0-.05,18.31-.3,26.87Z"/>
  <path class="cls-1" d="M336.07,119.34l-45.79,1.31-.53,24.35c-.07,3.41-3.16,4.88-5.46,4.64-2.84-.29-6.02-2.6-5.99-6.29l.59-68.11,57.62.68c9.6.11-5.77,17.87-6.22,21.09-.62,4.41,15.88,22.04,5.78,22.33ZM320.27,107.36c-5.36-8.1-4.62-12.9.48-19.25-11.26-2.24-20.02-1.23-30.39-.73-.78,7.8-.76,12.9.13,20.79l29.78-.81Z"/>
  <path class="cls-1" d="M338.04,196.48c1.25,1.85,1.36,4.07.85,5.79s-2.97,3.66-5.73,3.68l-42.82.32-.7,24.74c-.1,3.52-4.87,3.69-6.86,3.2-3.79-.93-4.68-4.13-4.64-8.33l.67-64.8,53.81-.67c2.42-.03,4.74.65,5.66,1.99.83,1.21,1.66,4.13.51,5.97l-9.55,15.13,8.82,12.99ZM320.2,193.34c-2.99-5.9-5.44-8.57-4.49-11.41,1.16-3.47,3.89-5.1,5.65-9.46l-31.17-.11.18,21.81c10.34.14,19.2,1.18,29.83-.84Z"/>
  <path class="cls-1" d="M74.26,200.93l-43.01-.25c-5.66-.03-8.88-6.33-8.88-11.51l.03-36.4c0-6.28,4.53-11.32,11.1-11.33l36.36-.06c7.01-.01,12.19,5.12,12.21,12.07l.08,35.34c.01,5.2-2.64,9.6-7.89,12.14ZM69.85,153.3h-35.34v36.03h35.34v-36.03Z"/>
  <path class="cls-1" d="M338.78,290.49l-48.58.79-.38,23.97c-.05,3.46-3.24,4.86-5.74,4.71-2.94-.18-5.77-2.5-5.77-6.41l-.1-61.98c0-2.33,1.62-5.98,4.45-5.92l55.79,1.09c3.62,10.23-8.82,16.24-8.7,22.13s12.03,11.39,9.03,21.62ZM315.63,269.36l4.71-11.04-30.02-.43v21.75s29.86-.37,29.86-.37l-4.55-9.91Z"/>
  <circle class="cls-1" cx="54.74" cy="28.06" r="6.84"/>
  <circle class="cls-1" cx="79.32" cy="27.99" r="6.83"/>
  <circle class="cls-1" cx="30.48" cy="27.93" r="6.78"/>
  <path class="cls-1" d="M151.56,349.06h-29.14c-4.62-.02-7.63-3.15-7.62-7.84l.04-27.55c0-4.8,2.78-7.89,7.59-7.88l28.43.06c3.82,0,6.56,2.62,6.55,6.42l-.07,30.31c0,3.08-2.2,5.86-5.78,6.49ZM145.4,318h-18.9v19.14h18.9v-19.14Z"/>
  <path class="cls-1" d="M236.25,321.28l-62.49.7c-2.85.03-3.26-2.8-3.8-4.05-.67-1.57-.18-7.02,2.34-7.02l63.1-.24c4.42-.02,4.57,10.57.85,10.62Z"/>
  <path class="cls-1" d="M212.48,343.33l-38.49.2c-3.67.02-4.57-4.61-4.19-6.73.6-3.36,3.07-4.82,7.07-4.81l33.08.05c3.72,0,5.84,2.48,6.24,4.9.3,1.85-.58,6.39-3.71,6.4Z"/>
  <path class="cls-1" d="M150.9,136.63l-29.94-.05c-3.29,0-6.02-2.53-6.02-5.99l-.07-29.25c-.01-4.67,2.97-7.76,7.59-7.76h28.38c3.74,0,6.62,2.58,6.61,6.34l-.13,30.31c-.02,3.72-2.74,6.4-6.44,6.39ZM126.43,105.42v19.17h18.99v-19.17h-18.99Z"/>
  <path class="cls-1" d="M236.3,109.19l-61.07.54c-3.89.03-6.2-2.78-6.31-5.81s2.28-5.76,6.26-5.75l59.98.21c2.82,0,3.36,2.85,3.67,4.16.39,1.64-.14,6.63-2.52,6.65Z"/>
  <path class="cls-1" d="M212.56,130.92l-37.1.37c-3.66.04-6.13-2.66-6.46-5.52-.38-3.35,2.33-6.56,6.51-6.56l33.93-.03c3.48,0,5.72,1.52,6.72,4.06.87,2.21-.1,7.65-3.6,7.68Z"/>
  <path class="cls-1" d="M151.14,242.81l-30.16-.06c-3.34,0-6.02-2.56-6.04-5.98l-.19-29.26c-.03-4.88,2.94-7.75,7.73-7.74l28.05.08c3.77.01,6.89,2.46,6.91,6.27l.15,28.75c.02,3.95-1.85,7-6.45,7.94ZM145.46,211.66h-18.96v19.33h18.96v-19.33Z"/>
  <path class="cls-1" d="M235.92,215.57l-60.73.65c-3.47.04-6.31-3.26-6.31-5.91s2.8-5.81,6.32-5.77l61.06.77c3.14.04,3.34,10.22-.33,10.26Z"/>
  <path class="cls-1" d="M212.56,237.23l-38.46.13c-3.01.01-5.03-3.54-5.14-5.39-.19-3,2.35-6,6.19-6.01l34.79-.02c3.76,0,5.82,2.11,6.32,4.87.35,1.89-.54,6.4-3.7,6.41Z"/>
  <polygon class="cls-1" points="41.45 96.59 43.56 105.02 64.77 95.14 63.05 91.85 46.2 100.16 44.88 94.75 41.45 96.59"/>
</svg>