<?xml version="1.0" encoding="UTF-8"?>
<svg id="Layer_1" data-name="Layer 1" xmlns="http://www.w3.org/2000/svg" viewBox="0 0 416.84 332.11">
  <defs>
    <style>
      .cls-1 {
        fill: #000490;
      }
    </style>
  </defs>
  <path class="cls-1" d="M15.08,241c0,12.68,8.45,19.84,20.07,20.1l228.88.12c4.24,0,5.54,4.46,5.77,6.94.26,2.77-1.23,8.03-5.93,8.03H32.78c-16.5-.01-32.75-12.94-32.75-29.99L0,30.95C0,15.15,14.58.27,30.79.26L382.27,0c20.65-.02,34.58,15.18,34.57,35.22l-.07,198.4c0,5.85-1.66,9.21-6.68,9.87-4.66.61-8.75-1.55-8.74-7.67l.15-125.82H15.17s-.09,131-.09,131ZM399.84,46.16c5.42-8.93.84-30.29-13.54-30.31l-355.26-.43c-8.09,0-13.06,8.47-14.45,11.38-2.23,7.96-3.6,14.34.97,19.53l382.27-.17ZM401.57,61.23H15.05v33.32h386.52v-33.32Z"/>
  <path class="cls-1" d="M349.14,327.46c-2.49,3.01-4.87,4.48-7.24,4.63-2.3.15-5.08-.71-7.07-3.13l-46.62-56.6c-1.53-1.86-.62-6.05.08-7.58.65-1.42,2.24-3.2,5.42-3.34l17.7-.76,1.07-59.14,51.32-.78c5.07-.08,7.25,3.88,7.25,8.32l.02,51.66,17.48.63c3.25.12,5.25,2.08,6.37,4.24,1.24,2.37.93,5.46-1.39,8.27l-44.38,53.57ZM369.72,278.1c-8.85-2.62-9.81-2.35-11.93-4.15-1.62-1.37-2.01-4.31-2.05-7l-.69-51.03-27.51.49-1.28,56.32c-1.1,3.31-8.87,3.75-12.98,4.53l28.07,35.64,28.36-34.8Z"/>
  <path class="cls-1" d="M122.11,239.05l-78.64.25c-4.17.01-5.63-4.2-5.81-6.71-.15-2.18.85-7.69,4.5-7.69l78.97-.2c3.91,0,5.44,4,5.8,6.34.33,2.12-.4,8.01-4.83,8.02Z"/>
  <path class="cls-1" d="M88.61,209.66l-46.69.35c-3.28.02-4.07-4.61-4.15-6.42-.1-2.17.77-7.54,4.36-7.54l45.25.05c3.23,0,4.23,4.13,4.61,5.94s-.06,7.6-3.38,7.63Z"/>
  <g id="_8vKBHq" data-name="8vKBHq">
    <path class="cls-1" d="M212.97,231.99l-34.39-43.08-.03-8.91c11.13.43,23.97.53,29.81-9.14,1.44-2.38,2.6-4.79,1.86-7.62h-34.75s5.99-9.41,5.99-9.41l27.71.24c-5.42-11.38-21.32-9.3-33.71-9.27l5.83-9.11,59.19.04-5.31,8.82-15.65.14c2.15,3.14,3.29,5.99,4.32,9.35l17.28-.04-6.02,9.29-11.28.04c-2.59,15.2-15.13,22.46-30.54,23.85l35.79,44.7-16.11.09Z"/>
  </g>
</svg>